<?xml version="1.0" encoding="UTF-8" standalone="no"?>
<!DOCTYPE svg PUBLIC "-//W3C//DTD SVG 1.1//EN" "http://www.w3.org/Graphics/SVG/1.1/DTD/svg11.dtd">
<svg width="100%" height="100%" viewBox="0 0 200 200" version="1.1" xmlns="http://www.w3.org/2000/svg" xmlns:xlink="http://www.w3.org/1999/xlink" xml:space="preserve" xmlns:serif="http://www.serif.com/" style="fill-rule:evenodd;clip-rule:evenodd;stroke-linejoin:round;stroke-miterlimit:2;">
    <g transform="matrix(1.07687,0,0,1.07687,0.912833,10.9297)">
        <circle cx="53.227" cy="67.88" r="9.285" style="fill:rgb(60,60,60);"/>
    </g>
    <g transform="matrix(1.07687,0,0,1.07687,84.4498,10.9297)">
        <circle cx="53.227" cy="67.88" r="9.285" style="fill:rgb(60,60,60);"/>
    </g>
    <g transform="matrix(0.648151,5.39585e-17,-5.39585e-17,-0.207546,37.6655,144.988)">
        <path d="M80.322,100.324C87.672,105.867 105.147,106.135 112.947,100.32C114.19,99.394 115.439,101.792 115.736,105.672C116.032,109.551 115.264,113.453 114.022,114.379C105.705,120.579 87.073,120.285 79.235,114.375C77.994,113.439 77.229,109.531 77.529,105.653C77.829,101.776 79.08,99.388 80.322,100.324Z" style="fill:rgb(60,60,60);"/>
    </g>
    <g transform="matrix(-0.0192054,0.647866,0.207455,0.00614983,67.2677,66.2088)">
        <path d="M80.592,100.584C83.71,104.242 88.073,104.781 91.501,100.831C92.699,99.45 94.031,101.366 94.473,105.109C94.915,108.851 94.301,113.01 93.103,114.391C88.661,119.511 83.005,118.856 78.964,114.115C77.769,112.712 77.163,108.541 77.612,104.807C78.061,101.074 79.397,99.181 80.592,100.584Z" style="fill:rgb(60,60,60);"/>
    </g>
    <g transform="matrix(0.0192054,0.647866,-0.207455,0.00614983,132.732,66.2088)">
        <path d="M78.964,114.115C83.005,118.856 88.661,119.511 93.103,114.391C94.301,113.01 94.915,108.851 94.473,105.109C94.031,101.366 92.699,99.45 91.501,100.831C88.073,104.781 83.71,104.242 80.592,100.584C79.397,99.181 78.061,101.074 77.612,104.807C77.163,108.541 77.769,112.712 78.964,114.115Z" style="fill:rgb(60,60,60);"/>
    </g>
</svg>
